<?xml version="1.0" encoding="UTF-8"?>
<svg width="226px" height="268px" viewBox="0 0 226 268" version="1.1" xmlns="http://www.w3.org/2000/svg" xmlns:xlink="http://www.w3.org/1999/xlink">
    <!-- Generator: Sketch 46 (44423) - http://www.bohemiancoding.com/sketch -->
    <title>hero</title>
    <desc>Created with Sketch.</desc>
    <defs>
        <circle id="path-1" cx="74.4429155" cy="74.4429155" r="74.4429155"></circle>
    </defs>
    <g id="Website" stroke="none" stroke-width="1" fill="none" fill-rule="evenodd">
        <g id="Desktop-Copy-8" transform="translate(-650.000000, -95.000000)">
            <g id="hero" transform="translate(650.000000, 95.000000)">
                <rect id="Rectangle-7" fill="#4FD6FF" transform="translate(128.500000, 247.500000) scale(1, -1) translate(-128.500000, -247.500000) " x="79" y="245" width="99" height="5" rx="2.5"></rect>
                <rect id="Rectangle-7-Copy-5" fill="#CCF5FF" transform="translate(86.000000, 265.500000) scale(1, -1) translate(-86.000000, -265.500000) " x="43" y="263" width="86" height="5" rx="2.5"></rect>
                <g id="Group">
                    <circle id="Oval-Copy-2" fill="#4FD6FF" opacity="0.234827899" cx="112.968265" cy="112.968265" r="112.968265"></circle>
                    <circle id="Oval-Copy" fill-opacity="0.6" fill="#4FD6FF" opacity="0.674365942" cx="113.038168" cy="113.038168" r="94.5327337"></circle>
                    <g id="Group-7" transform="translate(39.478261, 39.478261)">
                        <mask id="mask-2" fill="white">
                            <use xlink:href="#path-1"></use>
                        </mask>
                        <use id="Mask" fill="#49D5FF" xlink:href="#path-1"></use>
                        <g id="20161110224204!Sketch_logo_frame" mask="url(#mask-2)" fill="#FFFFFF">
                            <g transform="translate(5.205798, 4.164639)" id="Shape">
                                <path d="M50.9394971,4.64188018 L59.3461004,14.6998729 L29.6730502,56.2226215 L0,14.6998729 L8.40728814,4.64234871 L19.0402833,0 L40.3051324,0 L50.9394971,4.64234871 L50.9394971,4.64188018 Z M20.1352841,40.3105588 L12.4279657,25.1021389 L6.35851076,20.1552794 L20.1352841,40.3105588 Z M43.4498235,25.4593003 L14.8365251,25.4593003 L29.1420359,51.9794047 L43.4498235,25.4593003 Z M38.1510646,40.3105588 L45.8576973,25.1021389 L51.9278379,20.1552794 L38.1510646,40.3105588 Z M12.9308949,23.3376919 L2.11950359,15.1055852 L8.68540167,7.42562925 L18.0157805,11.9932972 L12.9308949,23.3376919 Z M19.7697975,12.7296501 L14.8365251,24.3984961 L43.4498235,24.3984961 L38.5158681,12.7296501 L19.7697975,12.7296501 L19.7697975,12.7296501 Z M46.4141207,23.3376919 L57.2265968,15.1055852 L50.661635,7.42562925 L41.3303199,11.9932972 L46.4141207,23.3376919 Z M38.5641893,10.6079695 L19.7214728,10.6079695 L10.5975179,5.83436126 L18.8783532,2.12160836 L39.4063934,2.12168062 L47.6888307,5.83443352 L38.5641893,10.6080418 L38.5641893,10.6079695 Z"></path>
                            </g>
                        </g>
                        <g id="photoshop" mask="url(#mask-2)" fill-rule="nonzero" fill="#FFFFFF">
                            <g transform="translate(74.963495, 105.157125)" id="Shape">
                                <path d="M33.8686923,0 L9.86001332,0 C4.42307759,0 0,4.42307759 0,9.86001332 L0,33.8686923 C0,39.305628 4.42307759,43.7287056 9.86001332,43.7287056 L33.8686923,43.7287056 C39.305628,43.7287056 43.7287056,39.305628 43.7287056,33.8686923 L43.7287056,9.86001332 C43.7287056,4.42307759 39.305628,0 33.8686923,0 Z M42.1091239,33.8686923 C42.1091239,38.4124287 38.4124287,42.1091239 33.8686923,42.1091239 L9.86001332,42.1091239 C5.31627689,42.1091239 1.61958169,38.4124287 1.61958169,33.8686923 L1.61958169,9.86001332 C1.61958169,5.31627689 5.31627689,1.61958169 9.86001332,1.61958169 L33.8686923,1.61958169 C38.4124287,1.61958169 42.1091239,5.31627689 42.1091239,9.86001332 L42.1091239,33.8686923 Z"></path>
                                <path d="M15.3822943,10.4115966 L7.2881176,10.4115966 L7.2881176,33.317109 L9.70629486,33.317109 L9.70629486,25.7910121 L15.6173949,25.7910121 C16.7593119,25.7910121 17.7442153,25.5897708 18.5729448,25.1856521 C19.4008347,24.7823515 20.017134,24.3144246 20.4201636,23.7785992 C20.8231931,23.2444099 21.1422582,22.5572445 21.3773588,21.7171031 C21.6124593,20.8777796 21.7518404,20.1791615 21.7971812,19.6220667 C21.8416824,19.06579 21.8643528,18.4064385 21.8643528,17.642376 C21.8643528,15.4827134 21.3320179,13.7378042 20.2690275,12.4076484 C19.2051974,11.0766745 17.5762864,10.4115966 15.3822943,10.4115966 Z M19.4293826,19.0829691 C19.4176276,19.4101907 19.3395406,19.9010232 19.1942821,20.5562844 C19.0490235,21.2107276 18.8466691,21.7121947 18.5897377,22.0615038 C18.3319668,22.4108129 17.9230597,22.7372164 17.3638562,23.0431686 C16.8038131,23.3474847 16.1211818,23.5004608 15.3151227,23.5004608 L9.70629486,23.5004608 L9.70629486,12.7021478 L15.1807795,12.7021478 C18.0238171,12.7021478 19.4461755,14.3603433 19.4461755,17.6759162 C19.4461755,18.2870026 19.440298,18.7557475 19.4293826,19.0829691 Z"></path>
                                <path d="M32.4179257,23.4737897 C31.5865755,23.1369744 30.7504927,22.8324996 29.9096774,22.5587879 C29.0680734,22.2850761 28.3108663,21.9490496 27.6380563,21.5491307 C26.9644576,21.1500006 26.628447,20.6025771 26.628447,19.9084378 C26.628447,19.2774021 26.8966245,18.7567976 27.4329794,18.3474132 C27.9693344,17.9364512 28.7841207,17.7321533 29.8781271,17.7321533 C30.9713448,17.7321533 31.854753,17.9956108 32.5283517,18.520948 L33.2540084,16.5323967 L32.8754049,16.3115342 C32.6230026,16.1640296 32.2018062,16.0117922 31.6133932,15.8540332 C31.0241915,15.6962743 30.3931856,15.6173949 29.7203757,15.6173949 C27.8060617,15.6173949 26.4233701,16.074107 25.5715122,16.9891088 C24.7196543,17.9041106 24.2937253,18.8932591 24.2937253,19.9557655 C24.2937253,21.0182719 24.6825827,21.916709 25.4610862,22.6534433 C26.092092,23.284479 26.82327,23.7475015 27.6538315,24.0417219 C28.4843929,24.3367311 29.3102219,24.6151756 30.1305295,24.8778442 C30.9508371,25.1413016 31.6449435,25.4986256 32.2128488,25.9506049 C32.780754,26.4025843 33.0647067,27.0131114 33.0647067,27.7806086 C33.0647067,28.5481058 32.7334286,29.1373354 32.0708725,29.5467198 C31.4083163,29.9576818 30.6242915,30.1619797 29.7203757,30.1619797 C28.8164598,30.1619797 28.0166599,29.9466387 27.3225534,29.515168 C26.628447,29.0844861 26.2388009,28.4794806 26.1551926,27.7009403 L23.9466721,27.7955957 C23.9884762,29.0576671 24.5248312,30.1201735 25.555737,30.9823261 C26.5858541,31.8444787 28.0111386,32.2759494 29.8308017,32.2759494 C31.649676,32.2759494 33.0331564,31.8389571 33.9796652,30.967339 C34.9261739,30.0949321 35.3994283,29.069499 35.3994283,27.8910398 C35.3994283,26.7133694 35.1099544,25.7668158 34.5317953,25.051379 C33.9536362,24.3359423 33.2484871,23.810605 32.4179257,23.4737897 Z"></path>
                            </g>
                        </g>
                        <g id="illustrator" mask="url(#mask-2)" fill-rule="nonzero" fill="#FFFFFF">
                            <g transform="translate(88.498571, 0.000000)">
                                <path d="M33.8686923,0 L9.86001332,0 C4.42307759,0 0,4.42307759 0,9.86001332 L0,33.8686923 C0,39.305628 4.42307759,43.7287056 9.86001332,43.7287056 L33.8686923,43.7287056 C39.305628,43.7287056 43.7287056,39.305628 43.7287056,33.8686923 L43.7287056,9.86001332 C43.7287056,4.42307759 39.305628,0 33.8686923,0 Z M42.1091239,33.8686923 C42.1091239,38.4124287 38.4124287,42.1091239 33.8686923,42.1091239 L9.86001332,42.1091239 C5.31627689,42.1091239 1.61958169,38.4124287 1.61958169,33.8686923 L1.61958169,9.86001332 C1.61958169,5.31627689 5.31627689,1.61958169 9.86001332,1.61958169 L33.8686923,1.61958169 C38.4124287,1.61958169 42.1091239,5.31627689 42.1091239,9.86001332 L42.1091239,33.8686923 Z" id="Shape"></path>
                                <path d="M16.2064174,9.37043691 L9.37043691,32.2759494 L11.9588179,32.2759494 L14.1489864,24.8807411 L21.0513357,24.8807411 L23.3410573,32.2759494 L26.0289914,32.2759494 L18.9607203,9.37043691 L16.2064174,9.37043691 Z M14.7794895,22.4593012 L17.5669767,13.1662075 L20.454017,22.4593012 L14.7794895,22.4593012 Z" id="Shape"></path>
                                <path d="M29.6920958,9.37043691 C29.2730925,9.37043691 28.9045601,9.52941923 28.5874508,9.84643188 C28.2693892,10.1643965 28.1113107,10.5261527 28.1113107,10.9326524 C28.1113107,11.3391521 28.2693892,11.7009083 28.5874508,12.0179209 C28.9045601,12.3358856 29.2730925,12.4939159 29.6920958,12.4939159 C30.1110991,12.4939159 30.4729656,12.3415975 30.7776952,12.0379127 C31.0824249,11.7332759 31.2347897,11.3648558 31.2347897,10.9336044 C31.2347897,10.5023529 31.0833772,10.1320289 30.7786475,9.82739208 C30.4739178,9.5227553 30.1120514,9.37043691 29.6920958,9.37043691 Z" id="Shape"></path>
                                <rect id="Rectangle-path" x="29.1524704" y="16.6585545" width="2.08231931" height="16.6585545"></rect>
                            </g>
                        </g>
                        <g id="Group-8" mask="url(#mask-2)">
                            <g transform="translate(54.140302, 37.481748)">
                                <polygon id="Rectangle-8-Copy-2" fill="#9EAFFF" points="55.6523307 35.3994283 112.445243 61.4284197 55.6523307 87.4574112 0 61.4284197"></polygon>
                                <polygon id="Rectangle-8-Copy" fill-opacity="0.734120245" fill="#728BFF" points="55.6523307 18.7408738 112.445243 44.7698652 55.6523307 70.7988567 0 44.7698652"></polygon>
                                <polygon id="Rectangle-8" fill-opacity="0.839999974" fill="#637BFF" points="55.6523307 0 112.445243 26.0289914 55.6523307 52.0579828 0 26.0289914"></polygon>
                            </g>
                        </g>
                        <g id="user" mask="url(#mask-2)" fill-rule="nonzero" fill="#FFFFFF">
                            <g transform="translate(5.205798, 81.210453)" id="Shape">
                                <path d="M48.9345039,24.4672519 C48.9345039,10.9764541 37.9580498,0 24.4672519,0 C10.9764541,0 0,10.9764541 0,24.4672519 C0,31.5930054 3.06418966,38.0158815 7.94162512,42.4911643 L7.91849244,42.5116278 L8.71212112,43.1806959 C8.76372478,43.2242921 8.81977703,43.2598809 8.87138069,43.3025873 C9.29310714,43.6522466 9.72995881,43.9841115 10.1748179,44.3052998 C10.3189523,44.4093968 10.4630866,44.5134939 10.6098902,44.6149218 C11.0849997,44.9423381 11.5725653,45.2528497 12.0708075,45.5473465 C12.1793532,45.6114062 12.2887885,45.6736865 12.3982238,45.7359667 C12.9436211,46.0464784 13.5005848,46.3391957 14.0708942,46.6078906 C14.1127109,46.6274644 14.1554174,46.6452588 14.1972341,46.6648326 C16.0558556,47.528749 18.0399273,48.1631181 20.1147502,48.5376895 C20.1690231,48.5474764 20.2232959,48.5572633 20.2784584,48.5670502 C20.9226144,48.678265 21.5738882,48.7672368 22.2331694,48.826848 C22.313244,48.8339657 22.3933187,48.8384143 22.474283,48.845532 C23.1308951,48.8998049 23.7946249,48.9345039 24.4672519,48.9345039 C25.1336509,48.9345039 25.7911527,48.8998049 26.4442059,48.8473115 C26.5269497,48.8401937 26.6096935,48.8357451 26.6924373,48.8286274 C27.3463802,48.7690163 27.9923156,48.6827136 28.6302436,48.5732783 C28.6854062,48.5634914 28.7414584,48.5537045 28.7966209,48.5430278 C30.8403038,48.1764639 32.7959045,47.5563303 34.6305035,46.7146568 C34.6981221,46.6835167 34.7666304,46.654156 34.834249,46.6221261 C35.3832052,46.3641078 35.9197053,46.085626 36.4455288,45.7893498 C36.5763173,45.7155032 36.7062162,45.6407669 36.8361151,45.5642511 C37.3147835,45.2822104 37.7854444,44.9877137 38.2427596,44.6745329 C38.4073575,44.5624284 38.5683965,44.4440958 38.731215,44.326653 C39.1218013,44.0455021 39.5052698,43.7554539 39.8780618,43.45206 C39.9608056,43.3853311 40.0497774,43.3274994 40.1307418,43.2589911 L40.944834,42.5792464 L40.9208116,42.5587829 C45.8409535,38.0817206 48.9345039,31.6294839 48.9345039,24.4672519 Z M1.7794365,24.4672519 C1.7794365,11.9569236 11.9569236,1.7794365 24.4672519,1.7794365 C36.9775803,1.7794365 47.1550674,11.9569236 47.1550674,24.4672519 C47.1550674,31.2086471 44.1967542,37.2694079 39.5132773,41.427951 C39.2517001,41.2473382 38.9883435,41.0854094 38.7187589,40.9501723 L31.1855145,37.1839949 C30.5093286,36.845902 30.0893816,36.1661572 30.0893816,35.4107864 L30.0893816,32.7798896 C30.2637663,32.5645777 30.447938,32.3207949 30.6383377,32.0529898 C31.6134689,30.6757059 32.3955313,29.1436111 32.9658407,27.4949631 C34.0931137,26.9593528 34.8209032,25.8365283 34.8209032,24.5686798 L34.8209032,21.4146286 C34.8209032,20.6432429 34.5379728,19.8949898 34.0317231,19.3068861 L34.0317231,15.154571 C34.0779885,14.6928072 34.2416967,12.0868225 32.3563837,9.93726316 C30.7166329,8.06529596 28.0626034,7.11774602 24.4672519,7.11774602 C20.8719005,7.11774602 18.2178709,8.06529596 16.5781202,9.93637344 C14.6928072,12.0859327 14.8565154,14.6919175 14.9027807,15.1536813 L14.9027807,19.3059964 C14.3974208,19.8941001 14.1136006,20.6423532 14.1136006,21.4137389 L14.1136006,24.5677901 C14.1136006,25.5473699 14.5531214,26.4611105 15.3058231,27.0776853 C16.0264949,29.9007613 17.5096552,32.0378645 18.0577216,32.7620952 L18.0577216,35.3369398 C18.0577216,36.0629499 17.661797,36.7302386 17.023869,37.0790082 L9.98886682,40.916363 C9.76465782,41.0382544 9.54222825,41.1806093 9.31979869,41.3398689 C4.6941535,37.1831052 1.7794365,31.1597126 1.7794365,24.4672519 Z M37.7765473,42.8239189 C37.4651459,43.0499073 37.1484062,43.268778 36.8272179,43.4778618 C36.6795247,43.5739514 36.5327211,43.670041 36.3823588,43.7634614 C35.9624118,44.0232591 35.535347,44.2706008 35.099385,44.5019275 C35.0032955,44.5526415 34.9063162,44.6006863 34.8093369,44.6505105 C33.8075141,45.1638779 32.7709924,45.6051782 31.7059996,45.9637346 C31.6686315,45.9761907 31.6312633,45.9895365 31.5930054,46.0019925 C31.0351521,46.1870539 30.470181,46.3516518 29.8989819,46.493117 C29.8972024,46.493117 29.895423,46.4940067 29.8936436,46.4940067 C29.3171061,46.6363616 28.733451,46.7546941 28.1462369,46.8516734 C28.130222,46.8543426 28.114207,46.8579015 28.0981921,46.8605706 C27.5456771,46.9504322 26.9887135,47.0153816 26.4299704,47.0643161 C26.3312117,47.0732133 26.2324529,47.0794413 26.1328045,47.0865591 C25.5802895,47.1283758 25.0251053,47.1550674 24.4672519,47.1550674 C23.9031706,47.1550674 23.3408686,47.1274861 22.7812358,47.0856693 C22.6842566,47.0785516 22.5872773,47.0723236 22.4911877,47.0634264 C21.9271063,47.0136022 21.3656941,46.9468733 20.8096202,46.856122 C20.7847081,46.8516734 20.759796,46.8472248 20.7348839,46.8427763 C19.5586763,46.6461485 18.4011529,46.3569901 17.2738799,45.9788598 C17.2391809,45.9672935 17.2035921,45.9548374 17.1688931,45.9432711 C16.6092603,45.7528714 16.0558556,45.5420082 15.5122377,45.308902 C15.5086789,45.3071226 15.5042303,45.3053431 15.5006714,45.3035637 C14.9864142,45.0820238 14.481944,44.8364616 13.9837018,44.5775536 C13.9187523,44.5437443 13.8529132,44.5117144 13.7888535,44.4770154 C13.3342074,44.2341223 12.8893483,43.9716555 12.4507172,43.6976222 C12.3208184,43.6157682 12.1918092,43.5330244 12.0636898,43.4493908 C11.6597577,43.1851445 11.2611639,42.9102216 10.8732468,42.6192837 C10.8332094,42.5890333 10.7949516,42.5570034 10.7549142,42.526753 C10.7833852,42.5107381 10.8118562,42.4947232 10.8403272,42.4787082 L17.8753294,38.6413534 C19.0853462,37.9811825 19.8371581,36.7151134 19.8371581,35.3369398 L19.8362684,32.1321747 L19.6316332,31.884833 C19.6120594,31.86259 17.6884886,29.522631 16.9615888,26.3543443 L16.8806244,26.0020159 L16.5772305,25.8053882 C16.149276,25.5286858 15.8930371,25.0660323 15.8930371,24.5669004 L15.8930371,21.4128492 C15.8930371,20.9991302 16.0683116,20.6138822 16.3886102,20.3247238 L16.6822172,20.0595877 L16.6822172,15.103857 L16.6742098,14.987304 C16.6715406,14.9659507 16.4090737,12.8261783 17.9162564,11.1081324 C19.202789,9.6418767 21.4075109,8.89718252 24.4672519,8.89718252 C27.5154267,8.89718252 29.7130307,9.63564867 31.0031222,11.0912277 C32.5085255,12.7914793 32.2620735,14.971289 32.2602941,14.9890834 L32.2522866,20.0613671 L32.5458937,20.3265032 C32.8653025,20.6147719 33.0414667,21.0009096 33.0414667,21.4146286 L33.0414667,24.5686798 C33.0414667,25.2030489 32.6099534,25.7786966 31.9907095,25.9699861 L31.5485195,26.106113 L31.4061646,26.5465235 C30.8812308,28.177377 30.1338675,29.68367 29.1854278,31.0235857 C28.9523216,31.3527815 28.7254435,31.6446091 28.5305952,31.8679284 L28.3099451,32.1197186 L28.3099451,35.4107864 C28.3099451,36.8450123 29.1071326,38.1351037 30.3901063,38.7757009 L37.9233508,42.5418782 C37.9713956,42.5659006 38.0185506,42.5908127 38.0657057,42.6157248 C37.9705058,42.687792 37.8726368,42.7545209 37.7765473,42.8239189 Z"></path>
                            </g>
                        </g>
                    </g>
                </g>
            </g>
        </g>
    </g>
</svg>