<?xml version="1.0" encoding="UTF-8"?>
<svg width="30px" height="30px" viewBox="0 0 30 30" version="1.1" xmlns="http://www.w3.org/2000/svg" xmlns:xlink="http://www.w3.org/1999/xlink">
    <!-- Generator: Sketch 46 (44423) - http://www.bohemiancoding.com/sketch -->
    <title>instagram</title>
    <desc>Created with Sketch.</desc>
    <defs></defs>
    <g id="Website" stroke="none" stroke-width="1" fill="none" fill-rule="evenodd">
        <g id="Desktop-Copy-8" transform="translate(-448.000000, -2211.000000)" fill-rule="nonzero" fill="#3E48D8">
            <g id="Group-11" transform="translate(399.000000, 2211.000000)">
                <g id="instagram" transform="translate(49.000000, 0.000000)">
                    <path d="M21.45,0 L8.55,0 C3.85001953,0 0,3.85001953 0,8.55 L0,21.45 C0,26.1499805 3.85001953,30 8.55,30 L21.45,30 C26.1499805,30 30,26.1499805 30,21.45 L30,8.55 C30,3.85001953 26.1499805,0 21.45,0 Z M28.9999805,21.45 C28.9999805,25.6000195 25.5999609,28.9999805 21.45,28.9999805 L8.55,28.9999805 C4.39998047,28.9999805 1.00001953,25.5999609 1.00001953,21.45 L1.00001953,8.55 C1.00001953,4.39998047 4.40003906,1.00001953 8.55,1.00001953 L21.45,1.00001953 C25.6000195,1.00001953 28.9999805,4.40003906 28.9999805,8.55 L28.9999805,21.45 Z" id="Shape"></path>
                    <path d="M21.4542323,2.99212598 L8.54576772,2.99212598 C5.49378595,2.99212598 2.99212598,5.49378595 2.99212598,8.54576772 L2.99212598,21.4542323 C2.99212598,24.5062141 5.49378595,27.007874 8.54576772,27.007874 L21.4542323,27.007874 C24.5062141,27.007874 27.007874,24.5062141 27.007874,21.4542323 L27.007874,8.54576772 C27.007874,5.49378595 24.5062141,2.99212598 21.4542323,2.99212598 Z M26.0071983,21.4542323 C26.0071983,23.9558922 23.9558336,26.0071983 21.4542323,26.0071983 L8.54576772,26.0071983 C6.04410775,26.0071983 3.9928017,23.9558336 3.9928017,21.4542323 L3.9928017,8.54576772 C3.9928017,6.04410775 6.04416638,3.9928017 8.54576772,3.9928017 L21.4542323,3.9928017 C23.9558922,3.9928017 26.0071983,6.04416638 26.0071983,8.54576772 L26.0071983,21.4542323 Z" id="Shape"></path>
                    <path d="M15,7.00787402 C10.6043395,7.00787402 7.00787402,10.6043395 7.00787402,15 C7.00787402,19.3956605 10.6043395,22.992126 15,22.992126 C19.3956605,22.992126 22.992126,19.3956605 22.992126,15 C22.992126,10.6043395 19.3956605,7.00787402 15,7.00787402 Z M15,21.9931468 C11.1537605,21.9931468 8.00685318,18.8462395 8.00685318,15 C8.00685318,11.1537605 11.1537605,8.00685318 15,8.00685318 C18.8462395,8.00685318 21.9931468,11.1537605 21.9931468,15 C21.9931468,18.8462395 18.8462395,21.9931468 15,21.9931468 Z" id="Shape"></path>
                    <path d="M15.0393701,9.52755906 C11.9828508,9.52755906 9.52755906,11.982792 9.52755906,15.0393701 C9.52755906,18.0958894 11.982792,20.5511811 15.0393701,20.5511811 C18.0959481,20.5511811 20.5511811,18.0959481 20.5511811,15.0393701 C20.5511811,11.982792 18.0958894,9.52755906 15.0393701,9.52755906 Z M15.0393701,19.5490176 C12.5339908,19.5490176 10.5297225,17.5447494 10.5297225,15.0393701 C10.5297225,12.5339908 12.5339908,10.5297225 15.0393701,10.5297225 C17.5447494,10.5297225 19.5490176,12.5339908 19.5490176,15.0393701 C19.5490176,17.5447494 17.5447494,19.5490176 15.0393701,19.5490176 Z" id="Shape"></path>
                    <path d="M22.992126,5.51181102 C22.1443375,5.51181102 21.496063,6.16008551 21.496063,7.00787402 C21.496063,7.85566252 22.1443375,8.50393701 22.992126,8.50393701 C23.8399145,8.50393701 24.488189,7.85566252 24.488189,7.00787402 C24.488189,6.16008551 23.8399145,5.51181102 22.992126,5.51181102 Z" id="Shape"></path>
                </g>
            </g>
        </g>
    </g>
</svg>