<?xml version="1.0" encoding="UTF-8"?>
<svg width="30px" height="29px" viewBox="0 0 30 29" version="1.1" xmlns="http://www.w3.org/2000/svg" xmlns:xlink="http://www.w3.org/1999/xlink">
    <!-- Generator: Sketch 46 (44423) - http://www.bohemiancoding.com/sketch -->
    <title>linkedin</title>
    <desc>Created with Sketch.</desc>
    <defs></defs>
    <g id="Website" stroke="none" stroke-width="1" fill="none" fill-rule="evenodd">
        <g id="Desktop-Copy-8" transform="translate(-497.000000, -2211.000000)" fill-rule="nonzero" fill="#3E48D8">
            <g id="Group-11" transform="translate(399.000000, 2211.000000)">
                <g id="linkedin" transform="translate(98.000000, 0.000000)">
                    <path d="M4.04210526,0.0153630952 C2.94426901,0.0153630952 1.94619883,0.408186508 1.19766082,1.14469444 C0.399239766,1.93028373 0,2.91225595 0,3.94336706 C0,5.02355952 0.449122807,6.00558929 1.19766082,6.74209722 C1.94619883,7.47860516 2.99415205,7.92050992 3.99222222,7.87142857 L4.09204678,7.87142857 C5.09011696,7.87142857 6.03824561,7.47860516 6.78678363,6.74209722 C7.53532164,6.00558929 7.98444444,5.02355952 7.98444444,3.94336706 C8.03432749,2.91225595 7.58520468,1.93022619 6.83666667,1.19371825 C6.08812865,0.408128968 5.09005848,0.0153630952 4.04210526,0.0153630952 Z M6.08812865,6.05472817 C5.53918129,6.59485317 4.79064327,6.9385377 3.99222222,6.88945635 C3.24368421,6.88945635 2.44526316,6.59485317 1.89631579,6.05472817 C1.29748538,5.51460317 0.998070175,4.72901389 0.998070175,3.9434246 C0.998070175,3.15783532 1.29748538,2.42132738 1.89631579,1.83212103 C2.44526316,1.29199603 3.19380117,0.997392857 4.04210526,0.997392857 C4.79064327,0.997392857 5.53918129,1.29199603 6.08812865,1.83212103 C6.68695906,2.42132738 6.98637427,3.15783532 6.98637427,3.9434246 C6.98637427,4.72901389 6.68695906,5.51460317 6.08812865,6.05472817 Z" id="Shape"></path>
                    <path d="M5.98830409,8.85345833 L1.94619883,8.85345833 C1.14777778,8.85345833 0.499005848,9.49174603 0.499005848,10.3264742 L0.499005848,27.5116786 C0.499005848,28.2972679 1.19766082,28.9846944 1.99608187,28.9846944 L5.98830409,28.9846944 C6.78672515,28.9846944 7.48538012,28.2972679 7.48538012,27.5607599 L7.48538012,10.3264742 C7.48538012,9.54082738 6.78672515,8.85345833 5.98830409,8.85345833 Z M6.48730994,27.5607599 C6.48730994,27.8062817 6.23777778,28.0026647 5.98830409,28.0026647 L1.99608187,28.0026647 C1.74654971,28.0026647 1.49707602,27.7571429 1.49707602,27.5116786 L1.49707602,10.3264742 C1.49707602,10.0809524 1.69666667,9.8354881 1.94619883,9.8354881 L5.98830409,9.8354881 C6.23783626,9.8354881 6.48730994,10.0810099 6.48730994,10.3264742 L6.48730994,27.5607599 Z" id="Shape"></path>
                    <path d="M22.9551462,8.36241468 L21.907193,8.36241468 C19.9609942,8.36241468 18.1146199,9.19714286 16.9169591,10.5228571 L16.9169591,9.83543056 C16.9169591,9.34444444 16.4179532,8.85340079 15.9188889,8.85340079 L10.928655,8.85340079 C10.4795322,8.85340079 9.9305848,9.24622421 9.9305848,9.78629167 L9.9305848,28.1007698 C9.9305848,28.6408948 10.4795322,28.9845794 10.928655,28.9845794 L16.4179532,28.9845794 C16.867076,28.9845794 17.4160234,28.6408948 17.4160234,28.1007698 L17.4160234,17.4950556 C17.4160234,15.8747381 18.6136842,14.5981052 20.1606433,14.5981052 C20.9590643,14.5981052 21.7076023,14.8927083 22.2565497,15.4328333 C22.7555556,15.8747381 22.9552047,16.5621647 22.9552047,17.4459742 L22.9552047,28.0026071 C22.9552047,28.4935933 23.4542105,28.9846369 23.9532749,28.9846369 L28.9435088,28.9846369 C29.4425146,28.9846369 29.9415789,28.4936508 29.9415789,28.0026071 L29.9415789,15.3346706 C29.9415205,11.4066667 26.8974854,8.36241468 22.9551462,8.36241468 Z M28.9434503,27.9535258 L28.8935673,28.0026071 L24.0030994,28.0026071 L23.9532164,17.4460317 C23.9532164,16.267619 23.6538012,15.3838095 23.0050877,14.7455218 C22.2565497,14.0090139 21.2584795,13.6161905 20.2105263,13.6161905 C18.1146199,13.6652718 16.4678363,15.3347282 16.4678363,17.4951131 L16.4678363,28.0026071 L10.978538,28.0026071 L10.978538,9.83543056 L15.9188889,9.83543056 L15.9687719,9.8845119 L15.9687719,12.9778452 L17.3161404,11.652131 L17.3660234,11.6030496 C18.3640936,10.228254 20.1106433,9.34444444 21.957076,9.34444444 L23.0050292,9.34444444 C26.3484795,9.34444444 28.9434503,11.995873 28.9434503,15.3347282 L28.9434503,27.9535258 L28.9434503,27.9535258 Z" id="Shape"></path>
                </g>
            </g>
        </g>
    </g>
</svg>