<?xml version="1.0" encoding="UTF-8"?>
<svg width="31px" height="22px" viewBox="0 0 31 22" version="1.1" xmlns="http://www.w3.org/2000/svg" xmlns:xlink="http://www.w3.org/1999/xlink">
    <!-- Generator: Sketch 46 (44423) - http://www.bohemiancoding.com/sketch -->
    <title>mail</title>
    <desc>Created with Sketch.</desc>
    <defs></defs>
    <g id="Website" stroke="none" stroke-width="1" fill="none" fill-rule="evenodd">
        <g id="Desktop-Copy-8" transform="translate(-399.000000, -2218.000000)" fill-rule="nonzero" fill="#3E48D8">
            <g id="Group-11" transform="translate(399.000000, 2211.000000)">
                <g id="mail" transform="translate(0.000000, 7.000000)">
                    <g id="Group" transform="translate(5.000000, 11.000000)">
                        <path d="M21.3447086,6.79907102 C21.2244735,6.79907102 21.1042384,6.75207284 21.0103964,6.65703206 L15.3857399,1.01933845 C15.1892581,0.822990471 15.1794829,0.491914355 15.3642344,0.281989121 C15.5489859,0.0699750781 15.856905,0.0605754408 16.0553418,0.259012229 L21.6799984,5.89670584 C21.8764801,6.09305382 21.8862553,6.42412993 21.7015039,6.63405517 C21.6047293,6.7437176 21.4756965,6.79907102 21.3447086,6.79907102 Z" id="Shape"></path>
                        <path d="M0.569460363,6.79907102 C0.439450053,6.79907102 0.309439743,6.7437176 0.212665152,6.63405517 C0.0279136588,6.42412993 0.0376888701,6.09305382 0.234170617,5.89670584 L5.86078222,0.259012229 C6.05824149,0.0626642491 6.36811569,0.0710194823 6.55188966,0.281989121 C6.73664115,0.491914355 6.72686594,0.822990471 6.53038419,1.01933845 L0.903772588,6.65703206 C0.80993056,6.75207284 0.689695462,6.79907102 0.569460363,6.79907102 Z" id="Shape"></path>
                    </g>
                    <path d="M28.5009674,22 L2.49903263,22 C1.12156585,22 0,20.8813898 0,19.5053295 L0,2.49467048 C0,1.11861024 1.12156585,0 2.49903263,0 L28.5009674,0 C29.8784342,0 31,1.11861024 31,2.49467048 L31,19.5053295 C31,20.8813898 29.8784342,22 28.5009674,22 Z M2.49903263,0.997868191 C1.67235264,0.997868191 0.999613053,1.66943348 0.999613053,2.49467048 L0.999613053,19.5053295 C0.999613053,20.3305665 1.67235264,21.0021318 2.49903263,21.0021318 L28.5009674,21.0021318 C29.3276474,21.0021318 30.0003869,20.3305665 30.0003869,19.5053295 L30.0003869,2.49467048 C30.0003869,1.66943348 29.3276474,0.997868191 28.5009674,0.997868191 L2.49903263,0.997868191 Z" id="Shape"></path>
                    <path d="M16.0083733,14 C15.336172,14 14.6639707,13.7744758 14.1524912,13.324448 L1.17344642,1.89414892 C0.96319398,1.70944361 0.940955741,1.38697468 1.1239158,1.17369618 C1.30889751,0.961438148 1.62730865,0.942049193 1.83756109,1.12471356 L14.8166059,12.5539922 C15.4625256,13.1223947 16.554221,13.1223947 17.1991299,12.5539922 L30.1620014,1.14308204 C30.371243,0.958376734 30.6896542,0.97878616 30.8756467,1.19206466 C31.0586067,1.40534316 31.0373793,1.72679163 30.8271269,1.9125174 L17.8642554,13.3234275 C17.3517651,13.7744758 16.6805746,14 16.0083733,14 Z" id="Shape"></path>
                </g>
            </g>
        </g>
    </g>
</svg>