<?xml version="1.0" encoding="UTF-8"?>
<svg width="30px" height="27px" viewBox="0 0 30 27" version="1.1" xmlns="http://www.w3.org/2000/svg" xmlns:xlink="http://www.w3.org/1999/xlink">
    <!-- Generator: Sketch 46 (44423) - http://www.bohemiancoding.com/sketch -->
    <title>medium</title>
    <desc>Created with Sketch.</desc>
    <defs></defs>
    <g id="Website" stroke="none" stroke-width="1" fill="none" fill-rule="evenodd">
        <g id="Desktop-Copy-8" transform="translate(-545.000000, -2214.000000)" fill-rule="nonzero" fill="#3E48D8">
            <g id="Group-11" transform="translate(399.000000, 2211.000000)">
                <g id="medium" transform="translate(146.000000, 3.000000)">
                    <path d="M29.9988867,5.14858578 C29.9909766,4.97472467 29.8880276,4.8118034 29.7314068,4.73451873 L20.4009562,0.05156158 C20.1797067,-0.0594248573 19.9109377,0.0139191211 19.7761137,0.222011339 L13.4716729,9.95817451 L10.2248238,4.90638008 C10.1781832,4.8337419 10.1108592,4.77321988 10.0338671,4.73451873 L0.703416595,0.05156158 C0.385721903,-0.107889523 5.85936356e-05,0.132081152 5.85936356e-05,0.487920021 L5.85936356e-05,5.17093599 C5.85936356e-05,5.44037365 0.217558169,5.65875873 0.486034207,5.65875873 C0.754451651,5.65875873 0.97200982,5.44043246 0.97200982,5.17093599 L0.97200982,1.27717651 L9.33050912,5.47231092 L9.33050912,25.1946067 L0.971951227,20.9995311 L0.971951227,7.25232869 C0.971951227,6.98289103 0.754451651,6.76450595 0.485975613,6.76450595 C0.217558169,6.76450595 0,6.98283222 0,7.25232869 L0,21.3010237 C0,21.4858246 0.104003703,21.6546864 0.268651819,21.7373233 L9.59910235,26.4202805 C9.91709001,26.579908 10.3024018,26.339408 10.3024018,25.9839808 L10.3024018,16.8870337 L29.2967006,26.4202805 C29.6146883,26.579908 30,26.339408 30,25.9839808 L30,5.17087717 C30,5.16334868 29.9992383,5.15605545 29.9988867,5.14858578 Z M10.3024018,15.7962258 L10.3024018,6.82673364 L18.8124828,20.0674685 L10.3024018,15.7962258 Z M29.0281074,25.1947243 L20.8636702,21.096931 L27.2255328,10.0986867 C27.3602395,9.86571522 27.2813139,9.56716347 27.0492245,9.43188588 C26.8171937,9.29672593 26.5197724,9.37583391 26.3849485,9.60886425 L20.161777,20.3672554 L14.0490546,10.8564765 L20.3544915,1.11901937 L28.8339867,5.37491106 L27.2878764,8.04787854 C27.1531696,8.28085007 27.2320952,8.57940182 27.4641846,8.71467941 C27.6960982,8.84978054 27.9935781,8.77073138 28.1284607,8.53770103 L29.0281074,6.9824205 L29.0281074,25.1947243 Z" id="Shape"></path>
                </g>
            </g>
        </g>
    </g>
</svg>