<?xml version="1.0" encoding="UTF-8"?>
<svg width="20px" height="30px" viewBox="0 0 20 30" version="1.1" xmlns="http://www.w3.org/2000/svg" xmlns:xlink="http://www.w3.org/1999/xlink">
    <!-- Generator: Sketch 46 (44423) - http://www.bohemiancoding.com/sketch -->
    <title>navlogo</title>
    <desc>Created with Sketch.</desc>
    <defs></defs>
    <g id="Website" stroke="none" stroke-width="1" fill="none" fill-rule="evenodd">
        <g id="Desktop-Copy-8" transform="translate(-28.000000, -18.000000)">
            <g id="navlogo" transform="translate(28.000000, 18.000000)">
                <g id="Group-Copy-2" transform="translate(15.000000, 19.791667) scale(-1, -1) translate(-15.000000, -19.791667) translate(10.000000, 10.000000)">
                    <path d="M9.95238095,0 C4.45583273,0 0,4.38159189 0,9.7865594 C0,15.1915269 4.45583273,19.5731188 9.95238095,19.5731188" id="Path" fill="#A9EEFF"></path>
                    <path d="M9.95238095,1.81750389 C5.4717824,1.81750389 1.83953961,5.38537157 1.83953961,9.7865594 C1.83953961,14.1877472 5.4717824,17.7556149 9.95238095,17.7556149" id="Path" fill="#82E6FF"></path>
                    <path d="M9.95238095,3.77481577 C6.56588205,3.77481577 3.82058226,6.4872298 3.82058226,9.83316206 C3.82058226,13.1790943 6.56588205,15.8915084 9.95238095,15.8915084" id="Combined-Shape" fill="#62E0FF"></path>
                    <path d="M9.95238095,5.63892232 C7.60788171,5.63892232 5.70728955,7.51674742 5.70728955,9.83316206 C5.70728955,12.1495767 7.60788171,14.0274018 9.95238095,14.0274018" id="Combined-Shape" fill="#4FD6FF"></path>
                </g>
                <g id="Group-Copy-3">
                    <path d="M10,0 C4.4771525,0 0,4.38387849 0,9.79166667 C0,15.1994548 4.4771525,19.5833333 10,19.5833333" id="Path" fill="#9AB0FC" opacity="0.494055707"></path>
                    <path d="M9.9047619,1.80622977 C5.97732262,1.80622977 2.70311656,4.56511843 1.96517985,8.22540048 C1.86307202,8.73187137 1.80952381,9.25560041 1.80952381,9.79166667 C1.80952381,14.2019017 5.43388536,17.7771036 9.9047619,17.7771036" id="Path" fill="#789CFF" opacity="0.59154212"></path>
                    <path d="M9.9047619,3.802589 C6.53845486,3.802589 3.80952381,6.50527137 3.80952381,9.83919903 C3.80952381,13.1731267 6.53845486,15.8758091 9.9047619,15.8758091" id="Combined-Shape" fill="#6586FF" opacity="0.598731884"></path>
                    <path d="M10,5.60881877 C7.63306536,5.60881877 5.71428571,7.48154356 5.71428571,9.79166667 C5.71428571,12.1017898 7.63306536,13.9745146 10,13.9745146" id="Combined-Shape" fill="#597DFF" opacity="0.514492754"></path>
                </g>
                <path d="M2.08333333,26.460728 C2.14393939,26.9971264 2.65909091,27.9166667 4.1540404,27.9166667 C5.45707071,27.9166667 6.08333333,27.1312261 6.08333333,26.3649425 C6.08333333,25.6752874 5.58838384,25.1101533 4.60858586,24.9185824 L3.90151515,24.7749042 C3.62878788,24.7270115 3.4469697,24.5833333 3.4469697,24.3534483 C3.4469697,24.085249 3.72979798,23.8840996 4.08333333,23.8840996 C4.6489899,23.8840996 4.86111111,24.2385057 4.90151515,24.5162835 L6.02272727,24.2768199 C5.96212121,23.7691571 5.48737374,22.9166667 4.07323232,22.9166667 C3.00252525,22.9166667 2.21464646,23.6159004 2.21464646,24.4588123 C2.21464646,25.1197318 2.6489899,25.6657088 3.60858586,25.8668582 L4.26515152,26.0105364 C4.6489899,26.0871648 4.80050505,26.2595785 4.80050505,26.4703065 C4.80050505,26.7193487 4.58838384,26.9396552 4.14393939,26.9396552 C3.55808081,26.9396552 3.26515152,26.5948276 3.23484848,26.2212644 L2.08333333,26.460728 Z" id="s" fill="#4E5259"></path>
                <path d="M12.9166667,7.08333333 L14.2647059,7.08333333 C14.4174837,6.83180894 15.0106209,5.92818428 15.1723856,5.67665989 L16.0980392,7.08333333 L17.5,7.08333333 L15.9003268,4.74508808 L17.4460784,2.5 L16.0890523,2.5 L15.2173203,3.86009485 C15.0645425,3.60857046 14.4893791,2.75152439 14.3366013,2.5 L12.9166667,2.5 L14.4893791,4.78235095 L12.9166667,7.08333333 Z" id="x" fill="#4E5259"></path>
            </g>
        </g>
    </g>
</svg>