<?xml version="1.0" encoding="UTF-8"?>
<svg width="198px" height="29px" viewBox="0 0 198 29" version="1.1" xmlns="http://www.w3.org/2000/svg" xmlns:xlink="http://www.w3.org/1999/xlink">
    <!-- Generator: Sketch 46 (44423) - http://www.bohemiancoding.com/sketch -->
    <title>Group 12</title>
    <desc>Created with Sketch.</desc>
    <defs></defs>
    <g id="Website" stroke="none" stroke-width="1" fill="none" fill-rule="evenodd">
        <g id="Desktop-HD-Copy-5" transform="translate(-942.000000, -736.000000)">
            <g id="Group-12" transform="translate(942.000000, 736.000000)">
                <rect id="Rectangle-2" stroke="#3E48D8" stroke-width="0.8" x="0.4" y="0.4" width="197.2" height="28.2" rx="4"></rect>
                <g id="Group-14" transform="translate(22.000000, 6.000000)" fill="#3E48D8">
                    <g id="network-(1)" fill-rule="nonzero">
                        <path d="M18.7910148,12.2637777 C18.7910148,12.2637777 18.1494889,13.7788021 17.4092845,14.0507718 C16.66908,14.3227032 16.0300523,13.7399219 17.2571262,10.8655087 C18.4845332,7.99070288 17.7941908,5.50437318 17.0272557,4.72742089 C16.2599228,3.9504686 14.1893119,3.71741739 13.0388862,4.41676255 C11.8880996,5.11591619 11.1175468,6.10683393 11.1175468,6.10683393 L11.487649,4.02826725 L6.97953566,4.10591269 L6.289221,6.66982077 L8.28322072,6.66982077 C8.28322072,6.66982077 6.44248033,12.3143028 6.289221,12.4444652 C6.13597093,12.5746659 4.82580908,13.588385 4.27065575,13.7788021 C3.71550243,13.9696022 3.06782354,14.1285704 3.37466604,12.8855157 C3.68151779,11.642461 5.52225818,4.02826725 5.52225818,4.02826725 L0.459370872,4.02826725 L0,6.51440542 L0,6.66982077 L1.8407774,6.66982077 C1.8407774,6.66982077 0.384582467,12.5746659 0.306861001,13.2738099 C0.228797191,13.9733179 0.384582467,15.4187793 2.60519577,15.8377276 C4.82580908,16.2570493 6.44248033,14.0507718 6.44248033,14.0507718 L6.13597093,15.8377276 L9.05052589,15.8377276 C9.05052589,15.8377276 10.5623935,9.74586503 11.1175468,8.40516936 C11.6727001,7.0644737 13.5232112,5.89214068 14.4484667,6.66982077 C15.3737223,7.4475296 14.9562747,8.68986609 14.5727748,9.69986959 C14.1893119,10.7098731 13.3381601,13.3848961 14.0783645,14.7255918 C14.818569,16.0662875 17.2571262,16.6408713 18.6377555,14.9833597 C19.6298978,13.7788021 20,12.6187843 20,12.6187843 L18.7910148,12.2637777 Z" id="Shape"></path>
                        <circle id="Oval" cx="4.5" cy="1.5" r="1.5"></circle>
                    </g>
                    <text id="Explore-the-prototyp" font-family="PostGrotesk-Book, Post Grotesk" font-size="14" font-weight="300" letter-spacing="-0.100000001">
                        <tspan x="26" y="13">Explore the prototyp</tspan>
                        <tspan x="147.312" y="13">e</tspan>
                    </text>
                </g>
            </g>
        </g>
    </g>
</svg>